<svg width="64" height="64" viewBox="0 0 64 64" fill="none" xmlns="http://www.w3.org/2000/svg">
<path d="M32.5 53.7008C32.5 54.5008 33.1 55.1008 33.9 55.1008H53C53.8 55.1008 54.4 54.5008 54.4 53.7008C54.4 52.9008 53.8 52.3008 53 52.3008H33.9C33.1 52.3008 32.5 52.9008 32.5 53.7008Z" fill="#6A0DAD"/>
<path d="M54.4 27.2008C54.4 26.4008 53.8 25.8008 53 25.8008H33.9C33.1 25.8008 32.5 26.4008 32.5 27.2008C32.5 28.0008 33.1 28.6008 33.9 28.6008H53C53.8 28.6008 54.4 28.0008 54.4 27.2008Z" fill="#6A0DAD"/>
<path d="M36.3984 30.7012H50.5984V50.1012H36.3984V30.7012Z" fill="#6A0DAD"/>
<path d="M15.7016 2.40039C14.4016 2.40039 13.1016 2.90039 12.1016 3.80039C11.1016 4.80039 10.6016 6.10039 10.6016 7.50039V14.1004C10.6016 14.8004 11.2016 15.4004 11.9016 15.4004H20.8016V7.70039C20.7016 4.50039 18.1016 2.40039 15.7016 2.40039Z" fill="#6A0DAD"/>
<path d="M9.10156 37.2012H34.3016V43.7012H9.10156V37.2012Z" fill="#6A0DAD"/>
<path d="M62.6984 61.6004C63.3984 61.6004 63.9984 61.0004 63.9984 60.3004V7.50039C63.9984 4.70039 61.6984 2.40039 58.8984 2.40039H20.8984C22.1984 3.70039 22.9984 5.50039 22.9984 7.50039V35.0004H34.2984V30.7004H33.9984C32.0984 30.7004 30.4984 29.1004 30.4984 27.2004C30.4984 25.3004 31.8984 23.7004 33.9984 23.7004H53.0984C54.9984 23.7004 56.5984 25.3004 56.5984 27.2004C56.5984 29.1004 54.9984 30.7004 53.0984 30.7004H52.7984V50.1004H53.0984C54.9984 50.1004 56.5984 51.7004 56.5984 53.6004C56.5984 55.5004 54.9984 57.1004 53.0984 57.1004H33.8984C31.9984 57.1004 30.3984 55.5004 30.3984 53.6004C30.3984 51.7004 31.7984 50.1004 33.8984 50.1004H34.1984V45.8004H22.9984V60.3004C22.9984 61.0004 23.5984 61.6004 24.2984 61.6004H62.6984ZM32.0984 8.10039H54.7984C55.3984 8.10039 55.8984 8.60039 55.8984 9.20039C55.8984 9.80039 55.3984 10.3004 54.7984 10.3004H32.0984C31.4984 10.3004 30.9984 9.80039 30.9984 9.20039C30.9984 8.60039 31.4984 8.10039 32.0984 8.10039ZM27.6984 18.0004C27.0984 18.0004 26.5984 17.5004 26.5984 16.9004C26.5984 16.3004 27.0984 15.8004 27.6984 15.8004H59.3984C59.9984 15.8004 60.4984 16.3004 60.4984 16.9004C60.4984 17.5004 59.8984 18.0004 59.2984 18.0004H27.6984Z" fill="#6A0DAD"/>
<path d="M0 40.3996C0 42.1996 1.5 43.5996 3.2 43.5996H6.9V37.0996H3.2C1.5 37.1996 0 38.5996 0 40.3996Z" fill="#6A0DAD"/>
</svg>
