<svg width="66" height="66" viewBox="0 0 66 66" fill="none" xmlns="http://www.w3.org/2000/svg">
<path d="M35.7489 56.2307H24.9589C24.904 55.7655 25.118 53.5072 24.7689 53.2407L21.5089 48.8908C20.8653 48.0065 19.6617 48.9437 18.8989 49.1607C18.8689 49.1707 18.8389 49.1808 18.8089 49.1908C16.5585 50.1001 14.0609 50.097 11.7889 49.2008C10.9037 48.9381 9.73771 48.0058 9.07894 48.8908C9.07892 48.8908 5.81891 53.2407 5.81891 53.2407C5.69891 53.4007 5.62891 53.6107 5.62891 53.8208V62.0307C5.62891 62.5708 6.0589 63.0008 6.59888 63.0008H23.9989C24.5289 63.0008 24.9589 62.5708 24.9589 62.0307V58.1707H35.7489C37.0171 58.1627 37.0184 56.2388 35.7489 56.2307ZM10.4589 61.0708H7.5589V54.1408L10.1789 50.6408L10.4589 50.7508V61.0708ZM23.0289 61.0708H20.1289V50.7508L20.4089 50.6408L23.0289 54.1408V61.0708Z" fill="#6A0DAD"/>
<path d="M57.8287 59.7897C57.9097 61.4945 56.3806 62.996 54.6887 62.9297C53.8487 62.9097 53.0687 62.5597 52.4887 61.9397L45.7287 54.5796C42.6387 57.5296 42.1287 57.6697 41.8787 57.7397C40.662 58.388 35.3353 53.3027 35.6887 51.6597C36.0487 49.4797 44.3787 41.1496 46.5587 40.7796C48.2101 40.4353 53.2783 45.7585 52.6387 46.9696V46.9797C52.5687 47.2297 52.4287 47.7397 49.4787 50.8296L56.8387 57.5896C57.4587 58.1697 57.8087 58.9497 57.8287 59.7897Z" fill="#6A0DAD"/>
<path d="M28.6663 12.2101V12.4901C28.6663 12.3501 28.6562 12.2101 28.6562 12.0801C28.6663 12.1201 28.6663 12.1601 28.6663 12.2101Z" fill="#6A0DAD"/>
<path d="M60.3678 11.04V15.96C60.3678 16.5 59.9378 16.93 59.3979 16.93H54.4178V42.29C54.4178 42.83 53.9878 43.26 53.4478 43.26C52.9178 43.26 52.4778 42.83 52.4778 42.29V16.93H29.6278C29.0978 16.93 28.6678 16.5 28.6678 15.96V12.21C28.6678 12.16 28.6678 12.12 28.6578 12.08C28.6578 12.03 28.6578 11.98 28.6478 11.94C28.6578 11.92 28.6578 11.91 28.6478 11.89V11.88C28.5478 9.94 27.4378 8.28998 25.8778 7.47998C25.8678 7.46997 25.8478 7.45996 25.8379 7.45996C25.6178 7.32918 25.3997 7.24932 25.1578 7.16998C25.0279 7.12 24.8978 7.08997 24.7678 7.06C24.6978 7.03998 24.6278 7.02997 24.5678 7.01996C24.4678 6.98999 24.3678 6.97998 24.2678 6.96997C24.2174 6.9503 24.1678 6.97035 24.1178 6.95001C24.0879 6.95001 24.0678 6.95001 24.0378 6.94C24.0185 6.94 23.8996 6.94 23.8778 6.94C21.0418 6.81624 18.6833 9.24764 18.6878 12.21C18.6878 12.21 18.6878 34.18 18.6878 34.18C23.6781 37.6267 21.8427 47.4877 15.2976 47.5299C11.8278 47.53 9.00783 44.28 9.00783 40.28C8.99765 35.7411 12.6918 32.1282 16.7578 33.23V12.21C16.7578 8.25 19.8578 5.01001 23.6778 5H54.5678C57.7678 5 60.3678 7.70996 60.3678 11.04Z" fill="#6A0DAD"/>
<path d="M24.1189 6.94946C24.0889 6.94946 24.0689 6.94946 24.0389 6.93945C24.0196 6.93945 23.9007 6.93945 23.8789 6.93945C23.9889 6.93945 24.0889 6.94946 24.1889 6.95941C24.1689 6.95941 24.1389 6.95941 24.1189 6.94946Z" fill="#6A0DAD"/>
<path d="M38.5 22.3997V27.2297C38.5 27.7697 38.06 28.1997 37.53 28.1997H24.96C24.43 28.1997 24 27.7697 24 27.2297V22.3997C24 21.8697 24.43 21.4297 24.96 21.4297H37.53C38.06 21.4297 38.5 21.8697 38.5 22.3997Z" fill="#6A0DAD"/>
<path d="M43.33 31.1008V35.9308C43.33 36.4708 42.9 36.9008 42.36 36.9008H24.96C24.43 36.9008 24 36.4708 24 35.9308V31.1008C24 30.5709 24.43 30.1309 24.96 30.1309H42.36C42.9 30.1309 43.33 30.5709 43.33 31.1008Z" fill="#6A0DAD"/>
<path d="M27.8636 42.7009H24.9636C23.7004 42.6955 23.6989 40.7731 24.9637 40.7676L27.8636 40.7676C29.1268 40.773 29.1283 42.6954 27.8636 42.7009Z" fill="#6A0DAD"/>
<path d="M36.5625 42.7009H31.7292C30.4665 42.6956 30.464 40.7731 31.7292 40.7676L36.5625 40.7676C37.8252 40.7729 37.8277 42.6954 36.5625 42.7009Z" fill="#6A0DAD"/>
</svg>
