<svg width="74" height="74" viewBox="0 0 74 74" fill="none" xmlns="http://www.w3.org/2000/svg">
<g clip-path="url(#clip0_3840_604)">
<path d="M31.9342 0.255374C31.7307 0.0925911 31.4779 0.00390625 31.2173 0.00390625C30.9568 0.00390625 30.7039 0.0925911 30.5005 0.255374L10.5898 16.1885H51.8564L31.9342 0.255374Z" fill="#6A0DAD"/>
<path d="M57.8125 18.5H4.625C3.98642 18.5 3.46875 19.0177 3.46875 19.6562V24.2812C3.46875 24.9198 3.98642 25.4375 4.625 25.4375H57.8125C58.4511 25.4375 58.9688 24.9198 58.9688 24.2812V19.6562C58.9688 19.0177 58.4511 18.5 57.8125 18.5Z" fill="#6A0DAD"/>
<path d="M50.875 59.5584V58.9688H4.625C4.31862 58.9697 4.02506 59.0918 3.80842 59.3084C3.59178 59.5251 3.46967 59.8186 3.46875 60.125V64.75H51.6728C51.1438 63.0703 50.8748 61.3195 50.875 59.5584Z" fill="#6A0DAD"/>
<path d="M52.5747 67.0625H1.15625C0.849875 67.0634 0.556309 67.1855 0.339669 67.4022C0.123028 67.6188 0.000915014 67.9124 0 68.2188L0 72.8438C0.000915014 73.1501 0.123028 73.4437 0.339669 73.6603C0.556309 73.877 0.849875 73.9991 1.15625 74H58.4716C55.93 72.2464 53.8959 69.8534 52.5747 67.0625Z" fill="#6A0DAD"/>
<path d="M38.1562 27.75H24.2812V30.0625C24.2822 30.3689 24.4043 30.6624 24.6209 30.8791C24.8376 31.0957 25.1311 31.2178 25.4375 31.2188H37C37.3064 31.2178 37.5999 31.0957 37.8166 30.8791C38.0332 30.6624 38.1553 30.3689 38.1562 30.0625V27.75Z" fill="#6A0DAD"/>
<path d="M20.8125 27.75H6.9375V30.0625C6.93842 30.3689 7.06053 30.6624 7.27717 30.8791C7.49381 31.0957 7.78737 31.2178 8.09375 31.2188H19.6562C19.9626 31.2178 20.2562 31.0957 20.4728 30.8791C20.6895 30.6624 20.8116 30.3689 20.8125 30.0625V27.75Z" fill="#6A0DAD"/>
<path d="M55.5 30.0625V27.75H41.625V30.0625C41.6259 30.3689 41.748 30.6624 41.9647 30.8791C42.1813 31.0957 42.4749 31.2178 42.7812 31.2188H54.3438C54.6501 31.2178 54.9437 31.0957 55.1603 30.8791C55.377 30.6624 55.4991 30.3689 55.5 30.0625Z" fill="#6A0DAD"/>
<path d="M26.5938 33.5312H35.8438V50.875H26.5938V33.5312Z" fill="#6A0DAD"/>
<path d="M9.25 33.5312H18.5V50.875H9.25V33.5312Z" fill="#6A0DAD"/>
<path d="M53.1875 49.8344V33.5312H43.9375V50.875H51.6959C52.0893 50.399 52.605 50.0392 53.1875 49.8344Z" fill="#6A0DAD"/>
<path d="M72.9804 51.9565C69.7874 51.565 66.7839 50.2292 64.3547 48.1202C64.1442 47.9357 63.8737 47.834 63.5937 47.834C63.3137 47.834 63.0433 47.9357 62.8327 48.1202C60.4035 50.2292 57.4001 51.565 54.207 51.9565C53.9261 51.9901 53.6671 52.1255 53.4793 52.3371C53.2914 52.5488 53.1876 52.8219 53.1875 53.1049V59.563C53.1936 62.6843 54.1566 65.7287 55.9467 68.2857C57.7367 70.8427 60.2678 72.7893 63.1985 73.8632C63.4539 73.9558 63.7336 73.9558 63.989 73.8632C66.9196 72.7892 69.4505 70.8427 71.2405 68.2858C73.0305 65.729 73.9937 62.6848 74 59.5636V53.1049C73.9999 52.8219 73.8961 52.5487 73.7082 52.3371C73.5203 52.1255 73.2614 51.9901 72.9804 51.9565ZM67.88 58.6309L63.255 63.2559C63.1476 63.3633 63.0202 63.4485 62.8799 63.5066C62.7396 63.5647 62.5893 63.5946 62.4375 63.5946C62.2856 63.5946 62.1353 63.5647 61.995 63.5066C61.8547 63.4485 61.7273 63.3633 61.62 63.2559L59.3075 60.9434C59.0929 60.7261 58.973 60.4328 58.974 60.1274C58.975 59.822 59.0967 59.5295 59.3126 59.3135C59.5286 59.0976 59.8211 58.9759 60.1265 58.9749C60.4319 58.974 60.7252 59.0939 60.9425 59.3085L62.4375 60.8034L66.245 56.9959C66.4623 56.7813 66.7557 56.6614 67.061 56.6624C67.3664 56.6634 67.659 56.7851 67.8749 57.001C68.0908 57.217 68.2125 57.5096 68.2135 57.8149C68.2144 58.1203 68.0945 58.4136 67.88 58.6309Z" fill="#6A0DAD"/>
<path d="M24.2812 54.3438V56.6562H38.1562V54.3438C38.1553 54.0374 38.0332 53.7438 37.8166 53.5272C37.5999 53.3105 37.3064 53.1884 37 53.1875H25.4375C25.1311 53.1884 24.8376 53.3105 24.6209 53.5272C24.4043 53.7438 24.2822 54.0374 24.2812 54.3438Z" fill="#6A0DAD"/>
<path d="M6.9375 54.3438V56.6562H20.8125V54.3438C20.8116 54.0374 20.6895 53.7438 20.4728 53.5272C20.2562 53.3105 19.9626 53.1884 19.6562 53.1875H8.09375C7.78737 53.1884 7.49381 53.3105 7.27717 53.5272C7.06053 53.7438 6.93842 54.0374 6.9375 54.3438Z" fill="#6A0DAD"/>
<path d="M41.625 54.3438V56.6562H50.875V53.1875H42.7812C42.4749 53.1884 42.1813 53.3105 41.9647 53.5272C41.748 53.7438 41.6259 54.0374 41.625 54.3438Z" fill="#6A0DAD"/>
</g>
<defs>
<clipPath id="clip0_3840_604">
<rect width="74" height="74" fill="white"/>
</clipPath>
</defs>
</svg>
