<svg width="72" height="72" viewBox="0 0 72 72" fill="none" xmlns="http://www.w3.org/2000/svg">
<path d="M38.4406 8.74922C34.2107 4.74922 28.6606 2.7292 22.8307 3.02919C11.8006 3.62922 3.09068 12.7592 3.00065 23.8192C2.95066 30.2492 5.79063 36.2592 10.8006 40.3092C13.5807 42.5592 15.5406 45.6892 16.3207 49.1092C16.8407 51.3992 18.8407 52.9992 21.1907 52.9992H26.8107C29.1606 52.9992 31.1606 51.3992 31.6807 49.1092C32.4607 45.6692 34.4106 42.5592 37.1507 40.3592C38.1907 39.5192 39.1507 38.5892 40.0007 37.5892V34.9992C40.0007 33.4092 40.7707 31.9392 42.0007 31.0092V30.9992C42.0007 29.0092 43.1606 27.2892 44.8506 26.4892C44.9507 25.6692 45.0007 24.8392 45.0007 23.9992C45.0007 18.1692 42.6706 12.7592 38.4406 8.74922ZM37.0006 27.9992C37.0006 29.6492 35.6507 30.9992 34.0006 30.9992H30.6106C28.4607 30.9992 26.3606 31.6292 24.5506 32.8292C24.3807 32.9392 24.1906 32.9992 24.0006 32.9992C23.8106 32.9992 23.6206 32.9392 23.4507 32.8292C21.6407 31.6292 19.5406 30.9992 17.3907 30.9992H14.0006C12.3506 30.9992 11.0006 29.6492 11.0006 27.9992V17.9992C11.0006 16.3492 12.3506 14.9992 14.0006 14.9992H17.3907C19.7206 14.9992 21.9906 15.6292 24.0006 16.8192C26.0107 15.6292 28.2807 14.9992 30.6106 14.9992H34.0006C35.6507 14.9992 37.0006 16.3492 37.0006 17.9992V27.9992Z" fill="#6A0DAD"/>
<path d="M31 57V59.76C31 60.91 30.36 61.94 29.34 62.45L24.45 64.89C24.31 64.96 24.15 65 24 65C23.85 65 23.69 64.96 23.55 64.89L18.66 62.45C17.64 61.94 17 60.91 17 59.76V57C17 55.35 18.35 54 20 54H28C29.65 54 31 55.35 31 57Z" fill="#6A0DAD"/>
<path d="M34 17H30.61C28.63 17 26.7 17.54 25 18.56V30.29C26.75 29.45 28.66 29 30.61 29H34C34.55 29 35 28.55 35 28V18C35 17.45 34.55 17 34 17ZM32 27H31C30.45 27 30 26.55 30 26C30 25.45 30.45 25 31 25H32C32.55 25 33 25.45 33 26C33 26.55 32.55 27 32 27ZM32 24H31C30.45 24 30 23.55 30 23C30 22.45 30.45 22 31 22H32C32.55 22 33 22.45 33 23C33 23.55 32.55 24 32 24ZM32 21H31C30.45 21 30 20.55 30 20C30 19.45 30.45 19 31 19H32C32.55 19 33 19.45 33 20C33 20.55 32.55 21 32 21Z" fill="#6A0DAD"/>
<path d="M17.39 17H14C13.45 17 13 17.45 13 18V28C13 28.55 13.45 29 14 29H17.39C19.34 29 21.25 29.45 23 30.29V18.56C21.3 17.54 19.37 17 17.39 17ZM17 27H16C15.45 27 15 26.55 15 26C15 25.45 15.45 25 16 25H17C17.55 25 18 25.45 18 26C18 26.55 17.55 27 17 27ZM17 24H16C15.45 24 15 23.55 15 23C15 22.45 15.45 22 16 22H17C17.55 22 18 22.45 18 23C18 23.55 17.55 24 17 24ZM17 21H16C15.45 21 15 20.55 15 20C15 19.45 15.45 19 16 19H17C17.55 19 18 19.45 18 20C18 20.55 17.55 21 17 21Z" fill="#6A0DAD"/>
<path d="M66 63H65V54C65 46.6178 59.2529 40.567 52 40.0507V35C52 33.6981 51.1615 32.5984 50 32.1843V31C50 29.3457 48.6543 28 47 28C45.3457 28 44 29.3457 44 31V32.1843C42.8385 32.5984 42 33.6981 42 35V47C42 48.6543 43.3457 50 45 50H49C50.6543 50 52 48.6543 52 47V46.0695C55.9399 46.5641 59 49.9282 59 54V63H48V60H53C53.5527 60 54 59.5527 54 59C54 58.4473 53.5527 58 53 58H41C40.4473 58 40 58.4473 40 59C40 59.5527 40.4473 60 41 60H46V63H38C36.3457 63 35 64.3457 35 66C35 67.6543 36.3457 69 38 69H66C67.6543 69 69 67.6543 69 66C69 64.3457 67.6543 63 66 63ZM46 31C46 30.4482 46.4482 30 47 30C47.5518 30 48 30.4482 48 31V32H46V31ZM50 47C50 47.5518 49.5518 48 49 48H45C44.4482 48 44 47.5518 44 47V35C44 34.4482 44.4482 34 45 34H49C49.5518 34 50 34.4482 50 35V47ZM52 44.0507V42.0507C58.1499 42.5616 63 47.7203 63 54V63H61V54C61 48.8239 57.0459 44.5543 52 44.0507ZM66 67H38C37.4482 67 37 66.5518 37 66C37 65.4482 37.4482 65 38 65H66C66.5518 65 67 65.4482 67 66C67 66.5518 66.5518 67 66 67Z" fill="#6A0DAD"/>
<path d="M50 53C50.5527 53 51 52.5527 51 52C51 51.4473 50.5527 51 50 51H44C43.4473 51 43 51.4473 43 52C43 52.5527 43.4473 53 44 53H50Z" fill="#6A0DAD"/>
</svg>
