<svg width="66" height="66" viewBox="0 0 66 66" fill="none" xmlns="http://www.w3.org/2000/svg">
<path d="M58.4519 52.4127C59.5995 51.4728 60.3332 50.0458 60.3332 48.4504C60.3332 46.9572 59.6905 45.6116 58.6675 44.6747C59.1447 42.6719 59.3891 40.6087 59.3891 38.5317C59.3891 32.5152 57.4179 26.8481 53.6887 22.1432C50.1376 17.6629 45.1694 14.4199 39.6716 12.9835C38.7774 11.8276 37.5918 10.9084 36.2246 10.3389C37.372 9.399 38.1058 7.972 38.1058 6.37653C38.1058 3.55297 35.8087 1.25586 32.9852 1.25586C30.1618 1.25586 27.8647 3.55297 27.8647 6.37653C27.8647 7.972 28.5984 9.399 29.7458 10.3387C28.3786 10.9084 27.193 11.8275 26.2987 12.9834C20.8009 14.4198 15.8327 17.6628 12.2815 22.1432C8.55234 26.8481 6.5811 32.5152 6.5811 38.5317C6.5811 40.606 6.82499 42.6666 7.30091 44.6672C6.28294 45.6037 5.6437 46.9459 5.6437 48.4348C5.6437 50.0302 6.37743 51.4572 7.52482 52.397C4.46768 53.6706 2.3125 56.6889 2.3125 60.2021C2.3125 60.7005 2.71649 61.1045 3.21484 61.1045H18.3135C18.5435 61.1045 18.7528 61.0177 18.9121 60.8759C23.1224 63.5356 27.9581 64.9355 32.985 64.9355C38.0118 64.9355 42.8429 63.5372 47.0517 60.8799C47.2126 61.0285 47.427 61.1201 47.6631 61.1201H62.7618C63.2601 61.1201 63.6641 60.7161 63.6641 60.2177C63.6641 56.7046 61.5091 53.6863 58.4518 52.4127H58.4519ZM46.8756 58.8358C42.7766 61.6466 37.9825 63.131 32.9851 63.131C27.9877 63.131 23.2019 61.6493 19.1051 58.8432C18.6313 55.9245 16.6582 53.503 14.0037 52.3971C15.151 51.4572 15.8848 50.0302 15.8848 48.4348C15.8848 45.6113 13.5877 43.3142 10.7642 43.3142C10.1156 43.3142 9.49528 43.4367 8.92371 43.6578C8.56845 41.9802 8.38579 40.2613 8.38579 38.5317C8.38579 27.8974 15.1401 18.5974 25.0477 15.2392C24.715 16.1454 24.5334 17.1238 24.5334 18.1439C24.5334 18.6422 24.9374 19.0462 25.4357 19.0462H40.5344C41.0327 19.0462 41.4367 18.6422 41.4367 18.1439C41.4367 17.1238 41.2549 16.1454 40.9224 15.2392C50.83 18.5974 57.5844 27.8974 57.5844 38.5317C57.5844 40.2656 57.4008 41.9884 57.0439 43.6696C56.4749 43.4509 55.8578 43.3298 55.2127 43.3298C52.3892 43.3298 50.0921 45.6269 50.0921 48.4504C50.0921 50.0458 50.8258 51.4728 51.9732 52.4127C49.3256 53.5156 47.3563 55.9276 46.8758 58.836L46.8756 58.8358ZM51.8303 40.4493C51.8303 39.9509 51.4263 39.5469 50.9279 39.5469H50.2318L46.1215 28.9092C46.1063 28.8698 46.0876 28.8317 46.0669 28.7945C46.0633 28.788 46.0597 28.7816 46.0561 28.7752C46.0352 28.7398 46.0124 28.7055 45.9866 28.6729C45.9848 28.6707 45.9828 28.6687 45.981 28.6665C45.9576 28.6375 45.9318 28.61 45.9043 28.5837C45.8979 28.5775 45.8916 28.5714 45.885 28.5654C45.8565 28.5396 45.8269 28.5149 45.7945 28.4925C45.7931 28.4916 45.7918 28.4907 45.7904 28.4898C45.7899 28.4894 45.7894 28.489 45.7887 28.4887C42.6465 26.3058 39.005 24.967 35.2091 24.59V24.3142C35.2091 23.0879 34.2114 22.0902 32.9851 22.0902C31.7588 22.0902 30.7611 23.0879 30.7611 24.3142V24.5906C26.9675 24.9687 23.3283 26.3072 20.1879 28.4889C20.1875 28.4891 20.187 28.4895 20.1866 28.4898C20.1852 28.4908 20.1838 28.4917 20.1824 28.4926C20.15 28.5151 20.1203 28.5399 20.0918 28.5657C20.0852 28.5716 20.079 28.5777 20.0727 28.5839C20.0452 28.6103 20.0193 28.6377 19.9959 28.6669C19.9941 28.6691 19.9923 28.671 19.9904 28.6731C19.9647 28.7057 19.9418 28.74 19.921 28.7753C19.9172 28.7816 19.9136 28.788 19.9101 28.7946C19.8894 28.8319 19.8706 28.8699 19.8555 28.9093C19.135 30.7738 18.4146 32.6463 17.6941 34.5187C17.0484 36.1969 16.4026 37.8744 15.7569 39.5469H15.049C14.5506 39.5469 14.1466 39.9509 14.1466 40.4493C14.1466 44.0614 17.0853 47.0002 20.6975 47.0002C24.3097 47.0002 27.2484 44.0615 27.2484 40.4493C27.2484 39.9509 26.8444 39.5469 26.346 39.5469H25.6382L21.7985 29.5817C24.4996 27.8377 27.5686 26.7529 30.7611 26.4066V48.8782H25.1228C23.4426 48.8782 22.0755 50.2453 22.0755 51.9256V53.7978C22.0755 54.4458 22.6026 54.9729 23.2506 54.9729H42.7196C43.3675 54.9729 43.8947 54.4458 43.8947 53.7978V51.9256C43.8947 50.2453 42.5276 48.8782 40.8473 48.8782H35.2091V26.406C38.4038 26.7516 41.4749 27.8365 44.1778 29.5815L40.3271 39.5471H39.631C39.1326 39.5471 38.7286 39.9511 38.7286 40.4494C38.7286 44.0615 41.6673 47.0003 45.2795 47.0003C48.8917 47.0003 51.8304 44.0616 51.8304 40.4494L51.8303 40.4493ZM23.7041 39.5469H17.691C18.2534 38.089 18.8159 36.6284 19.3783 35.1667C19.8178 34.0243 20.2573 32.8822 20.6969 31.7417L23.7041 39.5469ZM32.5656 24.3142V48.8782V24.3144V24.3142ZM45.2794 31.737L48.2971 39.5469H42.2617L45.2794 31.737Z" fill="#6A0DAD"/>
</svg>
