<svg width="79" height="79" viewBox="0 0 79 79" fill="none" xmlns="http://www.w3.org/2000/svg">
<path d="M24.6868 53.8528C25.4109 53.4742 25.1147 51.4499 25.5755 49.6724C23.3866 49.2774 21.2141 48.7672 18.9922 48.1582C19.9797 51.3347 21.823 55.2517 24.6868 53.8528Z" fill="#0D1B73"/>
<path d="M61.5706 47.7299C61.5853 47.6704 61.5853 47.6083 61.5706 47.5488C59.5956 48.7338 49.951 50.5442 43.2031 50.8405C43.8944 54.2309 45.639 52.3217 49.0952 53.4738C52.5515 54.6259 53.4731 58.1809 52.1071 61.703C51.8662 62.1391 51.7211 62.6216 51.6813 63.1183C51.6416 63.6149 51.7082 64.1143 51.8767 64.5832C52.3421 64.5253 52.7903 64.3709 53.1927 64.13C53.5951 63.8892 53.9428 63.5671 54.2137 63.1842C55.8596 60.6826 54.2138 56.2059 55.0202 53.5561C55.6085 52.158 56.5021 50.9092 57.6355 49.9011C58.7689 48.893 60.1134 48.1511 61.5706 47.7299Z" fill="#0D1B73"/>
<path d="M38.0187 64.9615C33.0812 64.9615 35.4677 62.4598 31.0239 60.8963C30.7145 60.7819 30.3792 60.7568 30.0562 60.8237C29.7332 60.8907 29.4355 61.047 29.197 61.2748C28.9635 61.6094 28.8185 61.9977 28.7753 62.4034C28.7321 62.8091 28.7923 63.2192 28.9502 63.5954C29.326 64.0433 29.7913 64.4077 30.3162 64.6652C31.2288 65.1009 32.04 65.7228 32.6977 66.491C33.3553 67.2592 33.8448 68.1566 34.1345 69.1254C34.4343 68.4107 34.902 67.7787 35.4979 67.283C36.0938 66.7874 36.8004 66.4427 37.5579 66.2781C38.9239 65.9819 39.2037 65.6198 39.2037 65.6198C39.2028 65.4237 39.1518 65.2311 39.0556 65.0602C38.7139 64.994 38.3667 64.9609 38.0187 64.9615Z" fill="#0D1B73"/>
<path d="M58.0982 54.5607C57.5551 56.2065 59.2668 61.4073 56.8968 64.9788C56.3296 65.8107 55.5792 66.5015 54.7033 66.998C53.8273 67.4944 52.8492 67.7834 51.8441 67.8426C48.5524 67.8426 47.5978 63.9255 48.9968 60.4528C49.6551 58.8069 49.688 57.1611 47.9928 56.618C45.6228 55.8115 41.1626 57.7042 39.8953 51.3842C39.7801 50.8411 39.8953 50.9563 39.5003 50.9563C35.9482 50.9588 32.4005 50.7058 28.8847 50.1992C28.3416 51.5982 29.148 55.3342 26.2184 56.7826C23.2889 58.2309 18.9768 57.3257 16.6726 51.2855C16.2263 54.5555 16.4876 57.8832 17.439 61.0434C18.3903 64.2036 20.0094 67.1226 22.1867 69.6028C24.364 72.083 27.0487 74.0665 30.0591 75.4191C33.0695 76.7717 36.3354 77.4618 39.6356 77.4428C42.9359 77.4237 46.1935 76.696 49.1881 75.3087C52.1827 73.9214 54.8443 71.907 56.9928 69.4019C59.1414 66.8967 60.7267 63.9592 61.6414 60.7882C62.5562 57.6173 62.7792 54.2868 62.2951 51.0221C61.3906 51.2932 60.5513 51.7471 59.8294 52.3558C59.1075 52.9645 58.5182 53.7149 58.0982 54.5607ZM38.2495 69.3732C37.8716 69.4869 37.5408 69.72 37.3064 70.0374C37.072 70.3548 36.9468 70.7396 36.9493 71.1342C36.8798 71.7728 36.5749 72.3626 36.0941 72.7886C35.6134 73.2146 34.9912 73.4462 34.3489 73.4384C32.4397 73.4384 31.5345 71.6115 30.9255 69.8011C30.152 67.4805 27.2224 67.3817 25.988 64.9953C25.4925 64.1144 25.2716 63.1056 25.3537 62.0983C25.4358 61.091 25.8171 60.1312 26.4487 59.3422C27.0802 58.5532 27.9332 57.971 28.8981 57.6703C29.863 57.3696 30.8957 57.3643 31.8637 57.6548C33.9826 58.2633 35.7969 59.6431 36.9493 61.5226C37.4101 61.8682 40.7347 60.8642 41.9855 63.5798C43.2364 66.2955 42.183 68.5996 38.2495 69.439V69.3732Z" fill="#0D1B73"/>
<path d="M41.1432 14.8138C41.1432 14.3773 40.9698 13.9587 40.6612 13.65C40.3525 13.3414 39.9339 13.168 39.4974 13.168C39.0609 13.168 38.6423 13.3414 38.3336 13.65C38.025 13.9587 37.8516 14.3773 37.8516 14.8138C37.8516 15.2503 38.025 15.6689 38.3336 15.9776C38.6423 16.2862 39.0609 16.4596 39.4974 16.4596C39.9339 16.4596 40.3525 16.2862 40.6612 15.9776C40.9698 15.6689 41.1432 15.2503 41.1432 14.8138Z" fill="#0D1B73"/>
<path d="M35.0385 16.8869L13.6427 18.9771L39.4987 27.9798L77.3529 14.8132L39.4987 1.64648L1.64453 14.8132L8.32661 17.1338C8.78745 15.7348 7.99745 16.2121 34.6599 13.6117C34.9442 12.4829 35.6182 11.4908 36.5629 10.8106C37.5075 10.1304 38.6621 9.80589 39.8228 9.89427C40.9835 9.98265 42.0757 10.4783 42.9065 11.2937C43.7372 12.109 44.2532 13.1917 44.3633 14.3506C44.4734 15.5094 44.1705 16.6699 43.5081 17.6271C42.8457 18.5843 41.8665 19.2767 40.7432 19.5821C39.6199 19.8875 38.4248 19.7861 37.369 19.296C36.3131 18.8059 35.4644 17.9584 34.9727 16.9034L35.0385 16.8869Z" fill="#0D1B73"/>
<path d="M11.5182 26.5478V21.7419L8.22656 20.5898V26.5478C9.30608 26.269 10.4387 26.269 11.5182 26.5478Z" fill="#0D1B73"/>
<path d="M59.5446 44.8323C59.9214 44.7218 60.2462 44.4802 60.4605 44.1513C60.6748 43.8223 60.7644 43.4276 60.7132 43.0383L58.4419 24.9341L39.4984 31.4681L20.5548 24.8848L18.2836 42.9889C18.2324 43.3782 18.322 43.7729 18.5363 44.1019C18.7506 44.4309 19.0754 44.6724 19.4521 44.7829C32.5453 48.5722 46.4421 48.5893 59.5446 44.8323Z" fill="#0D1B73"/>
<path d="M9.8737 29.625C9.00069 29.625 8.16345 29.9718 7.54614 30.5891C6.92883 31.2064 6.58203 32.0437 6.58203 32.9167V39.5H13.1654V32.9167C13.1654 32.0437 12.8186 31.2064 12.2013 30.5891C11.584 29.9718 10.7467 29.625 9.8737 29.625Z" fill="#0D1B73"/>
</svg>
