<svg width="86" height="86" viewBox="0 0 86 86" fill="none" xmlns="http://www.w3.org/2000/svg">
<path d="M79.0501 71.4499L63.8819 56.2816C67.639 51.0087 69.875 44.5802 69.875 37.625C69.875 19.8418 55.4082 5.375 37.625 5.375C19.8418 5.375 5.375 19.8418 5.375 37.625C5.375 55.4082 19.8418 69.875 37.625 69.875C44.5802 69.875 51.0087 67.6417 56.2816 63.8819L71.4499 79.0501C73.5461 81.1491 76.9539 81.1491 79.0501 79.0501C81.1491 76.9512 81.1491 73.5488 79.0501 71.4499ZM37.625 64.5C22.8061 64.5 10.75 52.4439 10.75 37.625C10.75 22.8061 22.8061 10.75 37.625 10.75C52.4439 10.75 64.5 22.8061 64.5 37.625C64.5 52.4439 52.4439 64.5 37.625 64.5Z" fill="#0D1B73"/>
<path d="M45.2897 30.8613C46.3782 32.3959 47.0312 34.2583 47.0312 36.282C47.0312 41.477 42.8199 45.6883 37.625 45.6883C32.4301 45.6883 28.2188 41.477 28.2188 36.282C28.2188 34.2583 28.8718 32.3959 29.9602 30.8613L37.625 33.9439L45.2897 30.8613Z" fill="#0D1B73"/>
<path d="M53.7511 22.8519V32.25H51.0636V24.1956L37.8841 29.4927C37.7175 29.5599 37.532 29.5599 37.3654 29.4927L21.7618 23.22C21.4232 23.083 21.4232 22.6046 21.7618 22.4675L37.3681 16.1949C37.5347 16.1277 37.7202 16.1277 37.8868 16.1949L53.5065 22.4729C53.6758 22.5428 53.7538 22.6987 53.7511 22.8519Z" fill="#0D1B73"/>
<path d="M53.6375 53.9059C49.5149 57.9613 43.8658 60.4688 37.6254 60.4688C31.385 60.4688 25.7359 57.9613 21.6133 53.9059C22.1347 50.2428 24.5104 47.1898 27.7569 45.6875L37.6254 51.0625L47.4939 45.6875C50.7404 47.1898 53.1162 50.2428 53.6375 53.9059Z" fill="#0D1B73"/>
</svg>
