<svg width="77" height="77" viewBox="0 0 77 77" fill="none" xmlns="http://www.w3.org/2000/svg">
<path d="M46.0136 11.9353C46.0253 11.9353 46.0369 11.9353 46.0369 11.9237L49.3269 10.6753L29.5169 3.13867L9.68359 10.6753L29.5053 18.212L46.0136 11.9353Z" fill="#0D1B73"/>
<path d="M33.8438 48.8723V44.7656C33.7971 44.789 33.7504 44.8123 33.7037 44.8356C33.3654 45.0223 33.0154 45.1973 32.6654 45.349C32.5954 45.3723 32.5371 45.4073 32.4671 45.4306C31.1837 45.9556 29.8654 46.2473 28.5587 46.2473C27.2404 46.2473 25.9337 45.9673 24.6621 45.419C24.6037 45.3956 24.5454 45.3606 24.4871 45.3373C24.1604 45.1856 23.8337 45.0223 23.5071 44.8473C23.4487 44.8123 23.3904 44.789 23.3438 44.7656V48.884L28.5938 53.8423L33.8438 48.8723Z" fill="#0D1B73"/>
<path d="M65.7541 34.8962L68.8457 41.0212L71.3774 46.0379C71.6107 46.4929 72.1591 46.6679 72.6141 46.4462C73.0691 46.2129 73.2441 45.6646 73.0224 45.2096L67.1424 33.5896C66.9791 33.2746 66.6524 33.0879 66.3257 33.0879C66.1857 33.0879 66.0457 33.1229 65.9174 33.1812C65.6957 33.2979 65.5324 33.4846 65.4624 33.7179C65.3807 33.9512 65.4041 34.1962 65.5207 34.4179L65.7541 34.8962Z" fill="#0D1B73"/>
<path d="M64.0607 36.7148C57.819 37.7065 53.2923 40.0048 48.7773 44.4498L49.4307 45.7565L53.3973 53.5965C55.8123 53.2115 57.924 52.6515 59.8373 51.8698C61.144 51.3448 62.334 50.7382 63.454 50.0382C65.204 48.9648 66.9073 47.5998 68.669 45.8615L67.8057 44.1582L64.0607 36.7148Z" fill="#0D1B73"/>
<path d="M50.3079 56.7C50.4129 56.9217 50.6112 57.085 50.8445 57.155C51.0779 57.2367 51.3229 57.2133 51.5445 57.1083C51.7662 57.0033 51.9295 56.805 51.9995 56.5717C52.0812 56.3383 52.0579 56.0933 51.9529 55.8717L47.0995 46.27L46.3179 44.7417C46.3179 44.7417 46.3179 44.7417 46.3179 44.73L46.0729 44.2517C45.9095 43.9367 45.5829 43.75 45.2562 43.75C45.1162 43.75 44.9762 43.785 44.8479 43.8433C44.6262 43.96 44.4629 44.1467 44.3929 44.38C44.3112 44.6133 44.3345 44.8583 44.4395 45.08L50.3079 56.7Z" fill="#0D1B73"/>
<path d="M16.1923 26.5779C24.8956 29.7279 33.2023 29.8796 41.614 27.0446C42.3723 26.7879 43.1073 26.5196 43.854 26.2279C44.694 25.8896 45.2656 25.0612 45.2656 24.1396V14.7129L29.924 20.5462C29.6556 20.6512 29.364 20.6512 29.0956 20.5462L13.7656 14.7246V24.1046C13.7656 25.0496 14.3256 25.8779 15.2006 26.2162C15.5273 26.3446 15.8656 26.4729 16.1923 26.5779Z" fill="#0D1B73"/>
<path d="M63.6752 52.6055C63.5235 52.6988 63.3485 52.7688 63.1852 52.8505C62.9052 53.0021 62.6135 53.1538 62.3102 53.2938C62.1352 53.3755 61.9719 53.4688 61.7969 53.5505L69.7069 72.3455C69.9752 72.9871 70.4885 73.4655 71.1419 73.7105C71.7952 73.9438 72.4952 73.9088 73.1252 73.5938C73.7435 73.2905 74.1869 72.7538 74.3852 72.0888C74.5835 71.4121 74.4902 70.7121 74.1285 70.1171L63.6752 52.6055Z" fill="#0D1B73"/>
<path d="M52.5929 59.1859C52.1262 59.4192 51.6245 59.5359 51.1229 59.5359C50.7845 59.5359 50.4345 59.4776 50.1079 59.3726C49.2795 59.1042 48.6145 58.5209 48.2179 57.7509L45.1145 51.6142C43.3295 50.9026 41.4395 50.5176 39.5029 50.5176H35.4895L29.3995 56.2692C29.1779 56.4792 28.8862 56.5842 28.5945 56.5842C28.3029 56.5842 28.0229 56.4792 27.7895 56.2692L21.6995 50.5176H17.6862C9.3212 50.5176 2.51953 57.3192 2.51953 65.6842V73.6992H9.23953V68.2276C9.23953 67.5859 9.76453 67.0609 10.4062 67.0609C11.0479 67.0609 11.5729 67.5859 11.5729 68.2276V73.6992H45.6162V68.2276C45.6162 67.5859 46.1412 67.0609 46.7829 67.0609C47.4245 67.0609 47.9495 67.5859 47.9495 68.2276V73.6992H54.6695V65.6842C54.6695 63.3042 54.1095 60.9826 53.0479 58.8826C52.9079 58.9992 52.7562 59.1042 52.5929 59.1859Z" fill="#0D1B73"/>
<path d="M22.9381 41.5916C23.1598 41.7899 23.3931 41.9649 23.6148 42.1283C24.7115 42.9449 25.8315 43.4699 26.9865 43.7266C27.2665 43.7849 27.5465 43.8433 27.8265 43.8666C28.0715 43.8899 28.3165 43.9016 28.5615 43.9016C30.4631 43.9016 32.4465 43.1199 34.2898 41.6499C37.7315 38.9083 40.3098 34.0899 40.7531 29.7616C40.4848 29.8433 40.2165 29.8899 39.9365 29.9716C39.4815 30.0999 39.0148 30.2166 38.5481 30.3216C37.9881 30.4499 37.4281 30.5666 36.8681 30.6716C36.4131 30.7533 35.9581 30.8466 35.4915 30.9166C34.9198 30.9983 34.3481 31.0683 33.7765 31.1266C33.3215 31.1733 32.8665 31.2316 32.4115 31.2549C31.8281 31.3016 31.2448 31.3133 30.6615 31.3249C30.3348 31.3366 30.0081 31.3599 29.6698 31.3599C29.4948 31.3599 29.3315 31.3483 29.1565 31.3483C28.9931 31.3483 28.8298 31.3366 28.6665 31.3366C27.7798 31.3133 26.8931 31.2666 26.0065 31.1849C25.9481 31.1849 25.8898 31.1733 25.8198 31.1616C24.9565 31.0799 24.0815 30.9633 23.2181 30.8116C23.0898 30.7883 22.9615 30.7766 22.8331 30.7533C21.9581 30.6016 21.0831 30.4149 20.1965 30.2049C20.0331 30.1699 19.8698 30.1233 19.6948 30.0766C18.8081 29.8549 17.9215 29.6099 17.0348 29.3183C17.0115 29.3066 16.9881 29.3066 16.9531 29.2949C17.2798 33.7866 19.6948 38.8266 22.9381 41.5916Z" fill="#0D1B73"/>
<path d="M53.9676 19.7511C53.3259 19.7511 52.8009 19.2261 52.8009 18.5845V12.2028C52.8009 12.0045 52.6376 11.8411 52.4393 11.8411H29.5026C28.8609 11.8411 28.3359 11.3161 28.3359 10.6745C28.3359 10.0328 28.8609 9.50781 29.5026 9.50781H52.4393C53.9209 9.50781 55.1343 10.7211 55.1343 12.2028V18.5845C55.1343 19.2261 54.6093 19.7511 53.9676 19.7511Z" fill="#0D1B73"/>
<path d="M57.7738 31.2313C57.8204 31.5696 57.7154 31.908 57.4938 32.153C57.2721 32.4096 56.9571 32.5496 56.6188 32.5496H51.3104C50.9721 32.5496 50.6571 32.4096 50.4354 32.153C50.2138 31.908 50.1088 31.5696 50.1554 31.2313L51.1588 23.3096C50.6454 22.6563 50.3538 21.863 50.3538 21.0346C50.3538 19.0396 51.9754 17.418 53.9704 17.418C55.9538 17.418 57.5754 19.0396 57.5754 21.0346C57.5754 21.863 57.2954 22.6563 56.7704 23.298L57.7738 31.2313Z" fill="#0D1B73"/>
</svg>
