<svg width="84" height="84" viewBox="0 0 84 84" fill="none" xmlns="http://www.w3.org/2000/svg">
<path fill-rule="evenodd" clip-rule="evenodd" d="M43.1286 7.39312V14.689C43.1286 14.7352 43.11 14.775 43.0745 14.8048C43.0391 14.8345 42.9966 14.8458 42.951 14.8375C42.321 14.724 41.6742 14.7151 41.04 14.8117C40.995 14.8185 40.9537 14.8066 40.9191 14.7769C40.8845 14.7471 40.8665 14.708 40.8665 14.6625V7.39312C40.8665 7.31012 40.7988 7.24242 40.7158 7.24242H33.7646C33.7104 7.24242 33.6638 7.26863 33.6358 7.315C33.6077 7.36136 33.6059 7.41462 33.6309 7.46284L37.1644 14.2653C37.1649 14.2662 37.1653 14.267 37.1658 14.2678C37.316 14.5442 37.3427 14.7811 37.2839 15.0863C37.2834 15.0885 37.2831 15.0904 37.2827 15.0927C37.0799 16.4552 36.3984 17.6583 35.4159 18.5231C33.2653 20.4163 30.0454 20.4163 27.8951 18.5231C26.9079 17.6541 26.2245 16.4436 26.0252 15.0731C26.0247 15.0697 26.0242 15.0667 26.0235 15.0633C25.9703 14.8125 26.0012 14.5392 26.1359 14.2857C26.6465 13.3141 30.5872 5.64508 30.7613 5.41912C30.9763 5.1399 31.3054 4.98047 31.6556 4.98047H52.3397C52.792 4.98047 53.1669 5.23398 53.3637 5.6308C53.3642 5.63164 53.3645 5.63248 53.365 5.63332L57.8486 14.265C57.8491 14.2658 57.8494 14.2667 57.8499 14.2675C58.0001 14.5439 58.0269 14.7807 57.9681 15.086C57.9675 15.0882 57.9672 15.09 57.9669 15.0924C57.7641 16.4549 57.0825 17.6579 56.1001 18.5228C53.9497 20.416 50.7296 20.416 48.5792 18.5228C47.592 17.6537 46.9088 16.4438 46.7095 15.0734C46.709 15.07 46.7085 15.067 46.7079 15.0637C46.6543 14.8127 46.6853 14.5392 46.8201 14.2853L50.3642 7.46233C50.3892 7.41428 50.3874 7.36086 50.3593 7.31449C50.3313 7.26812 50.2847 7.24192 50.2305 7.24192H43.2793C43.1963 7.24242 43.1286 7.31012 43.1286 7.39312ZM33.0204 71.0444H50.9771C53.6387 71.0444 55.8163 72.4031 55.8163 74.0637V77.4098C55.8163 77.9808 55.5586 78.5161 55.1126 78.9727C55.0832 79.0028 55.0469 79.0181 55.0047 79.0181H28.9926C28.9504 79.0181 28.9141 79.0028 28.8847 78.9727C28.4387 78.5161 28.181 77.9808 28.181 77.4098V74.0637C28.181 72.4031 30.3588 71.0444 33.0204 71.0444ZM34.1744 68.6246C34.3691 64.4864 37.8143 61.1615 41.9985 61.1615C46.1827 61.1615 49.6279 64.4866 49.8227 68.6246C49.8248 68.6672 49.8106 68.7047 49.7811 68.7356C49.7515 68.7665 49.7147 68.7823 49.6719 68.7823H34.3249C34.2821 68.7823 34.2453 68.7665 34.2159 68.7356C34.1866 68.7049 34.1725 68.6674 34.1744 68.6246ZM41.9986 51.5017C44.287 51.5017 46.142 53.3567 46.142 55.6449C46.142 57.9334 44.287 59.7883 41.9986 59.7883C39.7103 59.7883 37.8553 57.9332 37.8553 55.6449C37.8553 53.3567 39.7103 51.5017 41.9986 51.5017ZM7.33454 38.9907H76.6628C77.5021 38.9907 78.1887 39.6195 78.1887 40.388V41.9364C78.1887 42.7049 77.5021 43.3337 76.6628 43.3337H7.33454C6.49521 43.3337 5.80859 42.7049 5.80859 41.9364V40.388C5.80859 39.6194 6.49521 38.9907 7.33454 38.9907ZM71.9866 45.5494C71.9866 45.4664 71.9189 45.3987 71.8359 45.3987H12.1613C12.0784 45.3987 12.0106 45.4664 12.0106 45.5494V64.7058C12.0106 65.9954 13.0657 67.0504 14.3553 67.0504H31.969C32.0411 67.0504 32.1018 67.0012 32.1166 66.9306C32.7281 64.0116 34.6083 61.5479 37.1492 60.1466C37.1907 60.1238 37.217 60.0868 37.2249 60.0401C37.233 59.9934 37.2206 59.9499 37.189 59.9144C36.18 58.7786 35.5666 57.2832 35.5666 55.6449C35.5666 52.0935 38.4471 49.2132 41.9985 49.2132C45.5498 49.2132 48.4304 52.0935 48.4304 55.6449C48.4304 57.2832 47.8172 58.7786 46.808 59.9144C46.7766 59.9499 46.7641 59.9934 46.772 60.0401C46.7801 60.0868 46.8063 60.1238 46.8478 60.1466C49.3888 61.5479 51.2691 64.0116 51.8804 66.9306C51.8952 67.0012 51.9558 67.0504 52.0279 67.0504H69.6419C70.9314 67.0504 71.9865 65.9954 71.9865 64.7058V45.5494H71.9866ZM63.652 16.9404C61.6646 16.9404 60.0534 18.5515 60.0534 20.5389C60.0534 22.5264 61.6646 24.1375 63.652 24.1375C65.6394 24.1375 67.2506 22.5264 67.2506 20.5389C67.2506 18.5515 65.6394 16.9404 63.652 16.9404ZM40.2189 25.4375C34.3835 26.6137 32.662 30.979 31.6913 36.7498C31.6836 36.7951 31.6952 36.8371 31.7249 36.8721C31.7547 36.9072 31.7942 36.9255 31.84 36.9255H52.1573C52.2031 36.9255 52.2428 36.9072 52.2724 36.8721C52.3019 36.837 52.3135 36.795 52.3059 36.7498C51.3352 30.979 49.6139 26.6137 43.7784 25.4375C43.7248 25.4266 43.6734 25.4435 43.6368 25.4842C43.6 25.5249 43.5883 25.5778 43.6046 25.63L46.0192 33.4175C46.037 33.4748 46.0209 33.5336 45.9764 33.5739C45.9319 33.6142 45.8717 33.6243 45.8164 33.6009C44.9212 33.2221 43.9117 33.1917 43.3132 34.1543C42.6176 35.2736 41.3796 35.2736 40.6839 34.1543C40.0855 33.1917 39.0761 33.2221 38.1807 33.6009C38.1254 33.6243 38.0653 33.6142 38.0207 33.5739C37.9762 33.5336 37.9601 33.4748 37.9779 33.4175L40.3926 25.63C40.4089 25.5778 40.3971 25.5249 40.3603 25.4842C40.3239 25.4437 40.2724 25.4267 40.2189 25.4375ZM22.1738 25.4472C27.9703 26.6378 29.6848 30.9951 30.6526 36.7498C30.6603 36.7951 30.6487 36.8371 30.619 36.8721C30.5893 36.9072 30.5498 36.9255 30.5039 36.9255H10.1867C10.1408 36.9255 10.1012 36.9072 10.0716 36.8721C10.042 36.837 10.0304 36.795 10.038 36.7498C11.0114 30.963 12.7396 26.5893 18.6144 25.4277C18.668 25.4172 18.7191 25.4341 18.7557 25.4748C18.7923 25.5154 18.8039 25.5682 18.7878 25.6204L16.3701 33.4177C16.3523 33.4749 16.3684 33.5337 16.4129 33.5741C16.4574 33.6144 16.5176 33.6245 16.5729 33.6011C17.4683 33.2223 18.4776 33.1919 19.0761 34.1545C19.7717 35.2737 21.0097 35.2737 21.7054 34.1545C22.3038 33.1919 23.3132 33.2223 24.2086 33.6011C24.2639 33.6245 24.324 33.6144 24.3686 33.5741C24.4131 33.5337 24.4292 33.4749 24.4114 33.4177L21.9998 25.6398C21.9835 25.5873 21.9952 25.5344 22.0322 25.4938C22.0685 25.4531 22.12 25.4363 22.1738 25.4472ZM65.4318 25.4375C71.2671 26.6137 72.9886 30.979 73.9593 36.7498C73.967 36.7951 73.9554 36.8371 73.9257 36.8721C73.896 36.9072 73.8565 36.9255 73.8106 36.9255H53.4935C53.4475 36.9255 53.408 36.9072 53.3785 36.8721C53.3489 36.837 53.3373 36.795 53.3449 36.7498C54.3156 30.979 56.0369 26.6137 61.8724 25.4375C61.926 25.4266 61.9774 25.4435 62.014 25.4842C62.0508 25.5249 62.0625 25.5778 62.0462 25.63L59.6316 33.4175C59.6138 33.4748 59.6299 33.5336 59.6744 33.5739C59.7189 33.6142 59.7791 33.6243 59.8344 33.6009C60.7296 33.2221 61.7391 33.1917 62.3376 34.1543C63.0333 35.2736 64.2712 35.2736 64.9669 34.1543C65.5653 33.1917 66.5747 33.2221 67.4701 33.6009C67.5254 33.6243 67.5855 33.6142 67.6301 33.5739C67.6746 33.5336 67.6907 33.4748 67.6729 33.4175L65.2582 25.6299C65.2419 25.5776 65.2537 25.5247 65.2905 25.484C65.3268 25.4437 65.3782 25.4267 65.4318 25.4375ZM20.3453 16.9404C18.3579 16.9404 16.7467 18.5515 16.7467 20.5389C16.7467 22.5264 18.3579 24.1375 20.3453 24.1375C22.3327 24.1375 23.9439 22.5264 23.9439 20.5389C23.9439 18.5515 22.3327 16.9404 20.3453 16.9404ZM41.9986 16.9404C40.0112 16.9404 38.4001 18.5515 38.4001 20.5389C38.4001 22.5264 40.0112 24.1375 41.9986 24.1375C43.9861 24.1375 45.5972 22.5264 45.5972 20.5389C45.5972 18.5515 43.9861 16.9404 41.9986 16.9404ZM29.2379 13.6955H34.0731C34.1272 13.6955 34.1737 13.6693 34.2019 13.6229C34.23 13.5765 34.2318 13.5233 34.2068 13.4751L31.7893 8.82095C31.7627 8.76971 31.7132 8.73964 31.6556 8.73964C31.5979 8.73964 31.5484 8.76971 31.5218 8.82095L29.1041 13.4752C29.0791 13.5233 29.081 13.5767 29.109 13.6231C29.1371 13.6694 29.1838 13.6955 29.2379 13.6955ZM49.922 13.6955H54.7572C54.8113 13.6955 54.8579 13.6693 54.8861 13.6229C54.9141 13.5765 54.916 13.5233 54.891 13.4751L52.4734 8.82095C52.4469 8.76971 52.3973 8.73964 52.3397 8.73964C52.2821 8.73964 52.2325 8.76971 52.206 8.82095L49.7883 13.4752C49.7633 13.5233 49.7651 13.5767 49.7932 13.6231C49.8214 13.6694 49.8679 13.6955 49.922 13.6955Z" fill="#0D1B73"/>
</svg>
