<svg width="74" height="74" viewBox="0 0 74 74" fill="none" xmlns="http://www.w3.org/2000/svg">
<path d="M65.0286 5.71875C64.6923 5.49451 64.3559 5.49451 64.0195 5.60663C60.9923 6.83996 57.7407 7.40057 54.4892 7.40057C48.4347 7.40057 42.4923 5.27027 37.7832 1.34602C37.3347 1.00966 36.7741 1.00966 36.3256 1.34602C31.6165 5.27027 25.6741 7.40057 19.6195 7.40057C16.2559 7.40057 13.0044 6.72784 9.97711 5.60663C9.64074 5.49451 9.30438 5.49451 8.96802 5.71875C8.63165 5.94299 8.51953 6.27936 8.51953 6.61572V44.4006C8.51953 59.9854 35.4286 72.2066 36.5498 72.7672C36.662 72.8794 36.8862 72.8794 36.9983 72.8794C37.1104 72.8794 37.3347 72.8794 37.4468 72.7672C38.568 72.3188 65.4771 60.0975 65.4771 44.4006V6.61572C65.5892 6.27936 65.365 5.94299 65.0286 5.71875ZM57.5165 44.4006C57.5165 50.6794 46.9771 58.8642 36.9983 64.0218C27.0195 58.8642 16.4801 50.6794 16.4801 44.4006V15.2491C17.4892 15.3612 18.4983 15.3612 19.6195 15.3612C25.7862 15.3612 31.7286 13.6794 36.9983 10.54C43.165 14.24 50.3407 15.8097 57.5165 15.1369V44.4006Z" fill="#0D1B73"/>
<path d="M36.999 31.0586C25.899 31.0586 20.293 34.198 20.293 40.4768C20.293 44.7374 21.9748 54.604 36.999 54.604C47.9869 54.604 53.7051 49.6707 53.7051 40.4768C53.7051 34.198 48.099 31.0586 36.999 31.0586ZM38.3445 52.3616C37.896 52.3616 37.4475 52.3616 37.1111 52.3616C36.5505 52.3616 35.9899 52.3616 35.4293 52.3616L29.3748 40.0283L32.2899 37.3374C32.6263 37.001 32.7384 36.4404 32.5142 35.9919L31.393 33.6374C32.6263 33.5253 33.9718 33.301 35.4293 33.301L32.8505 42.3828C32.7384 42.7192 32.8505 43.0556 32.9627 43.2798L36.1021 47.8768C36.3263 48.2131 36.6627 48.3253 36.999 48.3253C37.3354 48.3253 37.6718 48.101 37.896 47.8768L41.0354 43.2798C41.2596 43.0556 41.2596 42.7192 41.1475 42.3828L38.5687 33.301C40.0263 33.301 41.3718 33.4131 42.6051 33.6374L41.4839 35.9919C41.2596 36.4404 41.3718 37.001 41.7081 37.3374L44.6233 40.0283L38.3445 52.3616Z" fill="#0D1B73"/>
<path d="M44.5085 22.3128C44.5085 26.125 41.3691 29.2644 37.557 29.2644C33.7449 29.2644 30.6055 26.125 30.6055 22.3128C30.6055 18.5007 33.7449 15.3613 37.557 15.3613C41.3691 15.3613 44.5085 18.5007 44.5085 22.3128Z" fill="#0D1B73"/>
</svg>
